<svg width="303" height="57" viewBox="0 0 303 57" fill="none" xmlns="http://www.w3.org/2000/svg">
<path d="M1.43744 45.0595C0.979129 45.0595 0.624976 44.9338 0.374985 44.6825C0.124995 44.3892 0 44.0331 0 43.6141V2.57662C0 2.11576 0.124995 1.75965 0.374985 1.50827C0.624976 1.21499 0.979129 1.06835 1.43744 1.06835H26.9365C27.3948 1.06835 27.7489 1.21499 27.9989 1.50827C28.2489 1.75965 28.3739 2.11576 28.3739 2.57662V5.09041C28.3739 5.55127 28.2489 5.90739 27.9989 6.15876C27.7489 6.41014 27.3948 6.53583 26.9365 6.53583H6.06227V21.1786H25.6865C26.1448 21.1786 26.499 21.3252 26.749 21.6185C26.999 21.8699 27.124 22.226 27.124 22.6869V25.2007C27.124 25.6196 26.999 25.9757 26.749 26.269C26.499 26.5204 26.1448 26.6461 25.6865 26.6461H6.06227V43.6141C6.06227 44.0331 5.91644 44.3892 5.62478 44.6825C5.37479 44.9338 5.02064 45.0595 4.56232 45.0595H1.43744Z" fill="url(#paint0_linear_175_1864)"/>
<path d="M36.8174 45.0595C36.4008 45.0595 36.0466 44.9338 35.755 44.6825C35.505 44.3892 35.38 44.0331 35.38 43.6141V13.8258C35.38 13.4068 35.505 13.0717 35.755 12.8203C36.0466 12.527 36.4008 12.3804 36.8174 12.3804H39.8173C40.234 12.3804 40.5673 12.527 40.8173 12.8203C41.0673 13.0717 41.1923 13.4068 41.1923 13.8258V43.6141C41.1923 44.0331 41.0673 44.3892 40.8173 44.6825C40.5673 44.9338 40.234 45.0595 39.8173 45.0595H36.8174ZM36.3174 6.28445C35.9008 6.28445 35.5466 6.15876 35.255 5.90739C35.005 5.61411 34.88 5.25799 34.88 4.83903V1.44542C34.88 1.02646 35.005 0.691287 35.255 0.43991C35.5466 0.146637 35.9008 0 36.3174 0H40.2548C40.6714 0 41.0048 0.146637 41.2548 0.43991C41.5464 0.691287 41.6922 1.02646 41.6922 1.44542V4.83903C41.6922 5.25799 41.5464 5.61411 41.2548 5.90739C41.0048 6.15876 40.6714 6.28445 40.2548 6.28445H36.3174Z" fill="url(#paint1_linear_175_1864)"/>
<path d="M51.9536 45.0595C51.5369 45.0595 51.1828 44.9338 50.8911 44.6825C50.6411 44.3892 50.5161 44.0331 50.5161 43.6141V13.8886C50.5161 13.4697 50.6411 13.1136 50.8911 12.8203C51.1828 12.527 51.5369 12.3804 51.9536 12.3804H54.8284C55.2451 12.3804 55.5993 12.527 55.8909 12.8203C56.1826 13.1136 56.3284 13.4697 56.3284 13.8886V16.6538C57.1617 15.2293 58.3075 14.161 59.7658 13.4487C61.224 12.7365 62.974 12.3804 65.0156 12.3804H67.5155C67.9321 12.3804 68.2654 12.527 68.5154 12.8203C68.7654 13.0717 68.8904 13.4068 68.8904 13.8258V16.4024C68.8904 16.8214 68.7654 17.1566 68.5154 17.4079C68.2654 17.6593 67.9321 17.785 67.5155 17.785H63.7656C61.5157 17.785 59.7449 18.4553 58.4533 19.796C57.1617 21.0948 56.5159 22.8754 56.5159 25.1378V43.6141C56.5159 44.0331 56.3701 44.3892 56.0784 44.6825C55.7867 44.9338 55.4326 45.0595 55.0159 45.0595H51.9536Z" fill="url(#paint2_linear_175_1864)"/>
<path d="M86.5845 45.688C82.293 45.688 78.8765 44.3682 76.3349 41.7288C73.7934 39.0474 72.3976 35.4024 72.1476 30.7938C72.1059 30.2492 72.0851 29.5579 72.0851 28.72C72.0851 27.8401 72.1059 27.1279 72.1476 26.5832C72.3143 23.6086 73.0017 21.011 74.21 18.7905C75.4183 16.5281 77.0641 14.7894 79.1473 13.5744C81.2722 12.3594 83.7513 11.7519 86.5845 11.7519C89.7511 11.7519 92.3968 12.4223 94.5217 13.763C96.6883 15.1036 98.3341 17.0099 99.459 19.4818C100.584 21.9537 101.146 24.8445 101.146 28.1544V29.2227C101.146 29.6836 101.001 30.0397 100.709 30.2911C100.459 30.5424 100.126 30.6681 99.709 30.6681H78.0849C78.0849 30.71 78.0849 30.7938 78.0849 30.9195C78.0849 31.0452 78.0849 31.1499 78.0849 31.2337C78.1682 32.9515 78.5432 34.5645 79.2098 36.0728C79.8765 37.5391 80.8348 38.7332 82.0847 39.6549C83.3347 40.5766 84.8346 41.0375 86.5845 41.0375C88.0845 41.0375 89.3344 40.8071 90.3344 40.3462C91.3344 39.8853 92.1468 39.3826 92.7718 38.8379C93.3968 38.2514 93.8134 37.8115 94.0218 37.5182C94.3967 36.9735 94.6884 36.6593 94.8967 36.5755C95.105 36.4498 95.4384 36.387 95.8967 36.387H98.8966C99.3132 36.387 99.6465 36.5127 99.8965 36.7641C100.188 36.9735 100.313 37.2878 100.272 37.7067C100.23 38.3352 99.8965 39.1103 99.2716 40.032C98.6466 40.9118 97.7508 41.7916 96.5842 42.6714C95.4175 43.5513 94.0009 44.2845 92.3343 44.871C90.6677 45.4157 88.7511 45.688 86.5845 45.688ZM78.0849 26.3319H95.2092V26.1433C95.2092 24.258 94.8551 22.5821 94.1468 21.1158C93.4801 19.6494 92.501 18.4972 91.2094 17.6593C89.9177 16.7795 88.3761 16.3396 86.5845 16.3396C84.7929 16.3396 83.2513 16.7795 81.9597 17.6593C80.7098 18.4972 79.7515 19.6494 79.0848 21.1158C78.4182 22.5821 78.0849 24.258 78.0849 26.1433V26.3319Z" fill="url(#paint3_linear_175_1864)"/>
<path d="M110.182 45.0595C109.723 45.0595 109.348 44.9129 109.057 44.6196C108.765 44.3264 108.619 43.9493 108.619 43.4884V2.63947C108.619 2.17861 108.765 1.80154 109.057 1.50827C109.348 1.21499 109.723 1.06835 110.182 1.06835H116.057C116.682 1.06835 117.14 1.23594 117.431 1.57111C117.765 1.90628 117.973 2.15766 118.056 2.32525L129.619 23.5667L141.181 2.32525C141.264 2.15766 141.451 1.90628 141.743 1.57111C142.076 1.23594 142.556 1.06835 143.18 1.06835H148.993C149.451 1.06835 149.826 1.21499 150.118 1.50827C150.409 1.80154 150.555 2.17861 150.555 2.63947V43.4884C150.555 43.9493 150.409 44.3264 150.118 44.6196C149.826 44.9129 149.451 45.0595 148.993 45.0595H142.618C142.201 45.0595 141.847 44.9129 141.556 44.6196C141.264 44.3264 141.118 43.9493 141.118 43.4884V18.1621L133.181 33.0562C133.014 33.4333 132.764 33.7685 132.431 34.0617C132.098 34.355 131.639 34.5017 131.056 34.5017H128.119C127.577 34.5017 127.139 34.355 126.806 34.0617C126.473 33.7685 126.202 33.4333 125.994 33.0562L118.119 18.1621V43.4884C118.119 43.9493 117.973 44.3264 117.681 44.6196C117.39 44.9129 117.015 45.0595 116.557 45.0595H110.182Z" fill="url(#paint4_linear_175_1864)"/>
<path d="M174.013 45.688C170.555 45.688 167.659 45.1224 165.326 43.9912C162.992 42.8181 161.201 41.1632 159.951 39.0265C158.743 36.8897 158.076 34.3969 157.951 31.548C157.909 30.71 157.888 29.7674 157.888 28.72C157.888 27.6306 157.909 26.688 157.951 25.892C158.076 23.0011 158.784 20.5083 160.076 18.4135C161.367 16.2767 163.18 14.6428 165.513 13.5116C167.846 12.3385 170.68 11.7519 174.013 11.7519C177.304 11.7519 180.117 12.3385 182.45 13.5116C184.783 14.6428 186.596 16.2767 187.887 18.4135C189.179 20.5083 189.908 23.0011 190.075 25.892C190.116 26.688 190.137 27.6306 190.137 28.72C190.137 29.7674 190.116 30.71 190.075 31.548C189.908 34.3969 189.2 36.8897 187.95 39.0265C186.741 41.1632 184.971 42.8181 182.637 43.9912C180.304 45.1224 177.429 45.688 174.013 45.688ZM174.013 38.7122C176.054 38.7122 177.575 38.0838 178.575 36.8269C179.617 35.57 180.2 33.7056 180.325 31.2337C180.367 30.6053 180.388 29.7674 180.388 28.72C180.388 27.6725 180.367 26.8346 180.325 26.2062C180.2 23.7762 179.617 21.9327 178.575 20.6759C177.575 19.3771 176.054 18.7277 174.013 18.7277C171.971 18.7277 170.43 19.3771 169.388 20.6759C168.346 21.9327 167.763 23.7762 167.638 26.2062C167.596 26.8346 167.576 27.6725 167.576 28.72C167.576 29.7674 167.596 30.6053 167.638 31.2337C167.763 33.7056 168.346 35.57 169.388 36.8269C170.43 38.0838 171.971 38.7122 174.013 38.7122Z" fill="url(#paint5_linear_175_1864)"/>
<path d="M198.173 45.0595C197.757 45.0595 197.382 44.9129 197.049 44.6196C196.757 44.3264 196.611 43.9493 196.611 43.4884V13.9515C196.611 13.4906 196.757 13.1136 197.049 12.8203C197.382 12.527 197.757 12.3804 198.173 12.3804H204.298C204.757 12.3804 205.132 12.527 205.423 12.8203C205.715 13.1136 205.861 13.4906 205.861 13.9515V16.4024C206.944 15.0617 208.34 13.9515 210.048 13.0717C211.798 12.1918 213.881 11.7519 216.298 11.7519C218.756 11.7519 220.923 12.3175 222.798 13.4487C224.672 14.538 226.131 16.151 227.172 18.2878C228.214 20.3826 228.735 22.9383 228.735 25.9548V43.4884C228.735 43.9493 228.589 44.3264 228.297 44.6196C228.006 44.9129 227.631 45.0595 227.172 45.0595H220.548C220.089 45.0595 219.714 44.9129 219.423 44.6196C219.131 44.3264 218.985 43.9493 218.985 43.4884V26.3319C218.985 24.1114 218.444 22.3936 217.36 21.1786C216.319 19.9217 214.777 19.2933 212.735 19.2933C210.777 19.2933 209.215 19.9217 208.048 21.1786C206.923 22.3936 206.361 24.1114 206.361 26.3319V43.4884C206.361 43.9493 206.215 44.3264 205.923 44.6196C205.632 44.9129 205.257 45.0595 204.798 45.0595H198.173Z" fill="url(#paint6_linear_175_1864)"/>
<path d="M250.722 45.688C245.931 45.688 242.118 44.3473 239.285 41.6659C236.494 38.9846 235.015 35.0882 234.848 29.9768C234.848 29.6417 234.848 29.2018 234.848 28.6571C234.848 28.0706 234.848 27.6307 234.848 27.3374C235.015 24.0695 235.744 21.2834 237.035 18.9791C238.327 16.6329 240.139 14.8523 242.473 13.6373C244.806 12.3804 247.535 11.7519 250.66 11.7519C254.201 11.7519 257.139 12.4851 259.472 13.9515C261.805 15.376 263.555 17.3451 264.722 19.8589C265.93 22.3308 266.534 25.1797 266.534 28.4057V29.8512C266.534 30.2701 266.388 30.6472 266.097 30.9824C265.805 31.2756 265.43 31.4223 264.972 31.4223H244.597C244.597 31.4223 244.597 31.4851 244.597 31.6108C244.597 31.6946 244.597 31.7784 244.597 31.8622C244.639 33.2029 244.889 34.4388 245.347 35.57C245.806 36.6593 246.472 37.5391 247.347 38.2095C248.264 38.8798 249.368 39.215 250.66 39.215C251.66 39.215 252.493 39.0684 253.16 38.7751C253.826 38.4399 254.368 38.0838 254.785 37.7067C255.243 37.2878 255.576 36.9316 255.785 36.6384C256.16 36.1775 256.451 35.9052 256.659 35.8214C256.909 35.6957 257.264 35.6329 257.722 35.6329H264.347C264.722 35.6329 265.034 35.7585 265.284 36.0099C265.576 36.2613 265.701 36.5755 265.659 36.9526C265.618 37.6648 265.263 38.5237 264.597 39.5292C263.972 40.4928 263.034 41.4564 261.784 42.4201C260.534 43.3418 258.972 44.1169 257.097 44.7453C255.264 45.3738 253.139 45.688 250.722 45.688ZM244.597 25.6406H256.785V25.452C256.785 23.9857 256.535 22.7078 256.035 21.6185C255.576 20.4873 254.889 19.6075 253.972 18.9791C253.055 18.3506 251.951 18.0364 250.66 18.0364C249.368 18.0364 248.264 18.3506 247.347 18.9791C246.472 19.6075 245.785 20.4873 245.285 21.6185C244.827 22.7078 244.597 23.9857 244.597 25.452V25.6406Z" fill="url(#paint7_linear_175_1864)"/>
<path d="M277.376 57C277.043 57 276.73 56.8743 276.439 56.6229C276.189 56.3716 276.064 56.0573 276.064 55.6803C276.064 55.5965 276.084 55.4708 276.126 55.3032C276.168 55.1775 276.23 55.0099 276.314 54.8004L281.188 43.0485L269.189 14.5799C269.064 14.2448 269.001 13.9724 269.001 13.763C269.043 13.3859 269.189 13.0717 269.439 12.8203C269.689 12.527 270.001 12.3804 270.376 12.3804H276.501C277.001 12.3804 277.376 12.527 277.626 12.8203C277.876 13.0717 278.063 13.344 278.188 13.6373L285.938 33.0562L293.875 13.6373C294.042 13.3021 294.25 13.0088 294.5 12.7574C294.75 12.5061 295.146 12.3804 295.688 12.3804H301.625C302 12.3804 302.313 12.527 302.563 12.8203C302.854 13.0717 303 13.3649 303 13.7001C303 13.9096 302.938 14.2029 302.813 14.5799L285.126 55.7431C284.959 56.0783 284.73 56.3716 284.438 56.6229C284.188 56.8743 283.792 57 283.251 57H277.376Z" fill="url(#paint8_linear_175_1864)"/>
<defs>
<linearGradient id="paint0_linear_175_1864" x1="112.686" y1="50.16" x2="198.082" y2="-17.2922" gradientUnits="userSpaceOnUse">
<stop stop-color="#FFC83E"/>
<stop offset="1" stop-color="#FF7347"/>
</linearGradient>
<linearGradient id="paint1_linear_175_1864" x1="112.686" y1="50.16" x2="198.082" y2="-17.2922" gradientUnits="userSpaceOnUse">
<stop stop-color="#FFC83E"/>
<stop offset="1" stop-color="#FF7347"/>
</linearGradient>
<linearGradient id="paint2_linear_175_1864" x1="112.686" y1="50.16" x2="198.082" y2="-17.2922" gradientUnits="userSpaceOnUse">
<stop stop-color="#FFC83E"/>
<stop offset="1" stop-color="#FF7347"/>
</linearGradient>
<linearGradient id="paint3_linear_175_1864" x1="112.686" y1="50.16" x2="198.082" y2="-17.2922" gradientUnits="userSpaceOnUse">
<stop stop-color="#FFC83E"/>
<stop offset="1" stop-color="#FF7347"/>
</linearGradient>
<linearGradient id="paint4_linear_175_1864" x1="112.686" y1="50.16" x2="198.082" y2="-17.2922" gradientUnits="userSpaceOnUse">
<stop stop-color="#FFC83E"/>
<stop offset="1" stop-color="#FF7347"/>
</linearGradient>
<linearGradient id="paint5_linear_175_1864" x1="112.686" y1="50.16" x2="198.082" y2="-17.2922" gradientUnits="userSpaceOnUse">
<stop stop-color="#FFC83E"/>
<stop offset="1" stop-color="#FF7347"/>
</linearGradient>
<linearGradient id="paint6_linear_175_1864" x1="112.686" y1="50.16" x2="198.082" y2="-17.2922" gradientUnits="userSpaceOnUse">
<stop stop-color="#FFC83E"/>
<stop offset="1" stop-color="#FF7347"/>
</linearGradient>
<linearGradient id="paint7_linear_175_1864" x1="112.686" y1="50.16" x2="198.082" y2="-17.2922" gradientUnits="userSpaceOnUse">
<stop stop-color="#FFC83E"/>
<stop offset="1" stop-color="#FF7347"/>
</linearGradient>
<linearGradient id="paint8_linear_175_1864" x1="112.686" y1="50.16" x2="198.082" y2="-17.2922" gradientUnits="userSpaceOnUse">
<stop stop-color="#FFC83E"/>
<stop offset="1" stop-color="#FF7347"/>
</linearGradient>
</defs>
</svg>
