<svg width="607" height="326" viewBox="0 0 607 326" fill="none" xmlns="http://www.w3.org/2000/svg">
<path d="M535.086 301.062C535.086 430.31 430.31 535.086 301.062 535.086C171.814 535.086 67.0383 430.31 67.0383 301.062C67.0383 171.814 171.814 67.0383 301.062 67.0383C430.31 67.0383 535.086 171.814 535.086 301.062Z" fill="#F8D72F" fill-opacity="0.1"/>
<path d="M486.331 300.453C486.331 402.437 403.656 485.112 301.672 485.112C199.687 485.112 117.012 402.437 117.012 300.453C117.012 198.468 199.687 115.793 301.672 115.793C403.656 115.793 486.331 198.468 486.331 300.453Z" fill="#F8D72F" fill-opacity="0.2"/>
<path d="M448.546 301.062C448.546 382.515 382.515 448.546 301.062 448.546C219.609 448.546 153.578 382.515 153.578 301.062C153.578 219.609 219.609 153.578 301.062 153.578C382.515 153.578 448.546 219.609 448.546 301.062Z" fill="#F8D72F"/>
</svg>
