<svg width="189" height="46" viewBox="0 0 189 46" fill="none" xmlns="http://www.w3.org/2000/svg">
<g opacity="0.9">
<path d="M53.08 37C52.8747 37 52.716 36.944 52.604 36.832C52.492 36.7013 52.436 36.5427 52.436 36.356V18.072C52.436 17.8667 52.492 17.708 52.604 17.596C52.716 17.4653 52.8747 17.4 53.08 17.4H64.504C64.7093 17.4 64.868 17.4653 64.98 17.596C65.092 17.708 65.148 17.8667 65.148 18.072V19.192C65.148 19.3973 65.092 19.556 64.98 19.668C64.868 19.78 64.7093 19.836 64.504 19.836H55.152V26.36H63.944C64.1493 26.36 64.308 26.4253 64.42 26.556C64.532 26.668 64.588 26.8267 64.588 27.032V28.152C64.588 28.3387 64.532 28.4973 64.42 28.628C64.308 28.74 64.1493 28.796 63.944 28.796H55.152V36.356C55.152 36.5427 55.0867 36.7013 54.956 36.832C54.844 36.944 54.6853 37 54.48 37H53.08Z" fill="#45515F"/>
<path d="M68.9308 37C68.7442 37 68.5855 36.944 68.4548 36.832C68.3428 36.7013 68.2868 36.5427 68.2868 36.356V23.084C68.2868 22.8973 68.3428 22.748 68.4548 22.636C68.5855 22.5053 68.7442 22.44 68.9308 22.44H70.2748C70.4615 22.44 70.6108 22.5053 70.7228 22.636C70.8348 22.748 70.8908 22.8973 70.8908 23.084V36.356C70.8908 36.5427 70.8348 36.7013 70.7228 36.832C70.6108 36.944 70.4615 37 70.2748 37H68.9308ZM68.7068 19.724C68.5202 19.724 68.3615 19.668 68.2308 19.556C68.1188 19.4253 68.0628 19.2667 68.0628 19.08V17.568C68.0628 17.3813 68.1188 17.232 68.2308 17.12C68.3615 16.9893 68.5202 16.924 68.7068 16.924H70.4708C70.6575 16.924 70.8068 16.9893 70.9188 17.12C71.0495 17.232 71.1148 17.3813 71.1148 17.568V19.08C71.1148 19.2667 71.0495 19.4253 70.9188 19.556C70.8068 19.668 70.6575 19.724 70.4708 19.724H68.7068Z" fill="#45515F"/>
<path d="M75.7121 37C75.5254 37 75.3668 36.944 75.2361 36.832C75.1241 36.7013 75.0681 36.5427 75.0681 36.356V23.112C75.0681 22.9253 75.1241 22.7667 75.2361 22.636C75.3668 22.5053 75.5254 22.44 75.7121 22.44H77.0001C77.1868 22.44 77.3454 22.5053 77.4761 22.636C77.6068 22.7667 77.6721 22.9253 77.6721 23.112V24.344C78.0454 23.7093 78.5588 23.2333 79.2121 22.916C79.8654 22.5987 80.6494 22.44 81.5641 22.44H82.6841C82.8708 22.44 83.0201 22.5053 83.1321 22.636C83.2441 22.748 83.3001 22.8973 83.3001 23.084V24.232C83.3001 24.4187 83.2441 24.568 83.1321 24.68C83.0201 24.792 82.8708 24.848 82.6841 24.848H81.0041C79.9961 24.848 79.2028 25.1467 78.6241 25.744C78.0454 26.3227 77.7561 27.116 77.7561 28.124V36.356C77.7561 36.5427 77.6908 36.7013 77.5601 36.832C77.4294 36.944 77.2708 37 77.0841 37H75.7121Z" fill="#45515F"/>
<path d="M91.2274 37.28C89.3047 37.28 87.774 36.692 86.6354 35.516C85.4967 34.3213 84.8714 32.6973 84.7594 30.644C84.7407 30.4013 84.7314 30.0933 84.7314 29.72C84.7314 29.328 84.7407 29.0107 84.7594 28.768C84.834 27.4427 85.142 26.2853 85.6834 25.296C86.2247 24.288 86.962 23.5133 87.8954 22.972C88.8474 22.4307 89.958 22.16 91.2274 22.16C92.646 22.16 93.8314 22.4587 94.7834 23.056C95.754 23.6533 96.4914 24.5027 96.9954 25.604C97.4994 26.7053 97.7514 27.9933 97.7514 29.468V29.944C97.7514 30.1493 97.686 30.308 97.5554 30.42C97.4434 30.532 97.294 30.588 97.1074 30.588H87.4194C87.4194 30.6067 87.4194 30.644 87.4194 30.7C87.4194 30.756 87.4194 30.8027 87.4194 30.84C87.4567 31.6053 87.6247 32.324 87.9234 32.996C88.222 33.6493 88.6514 34.1813 89.2114 34.592C89.7714 35.0027 90.4434 35.208 91.2274 35.208C91.8994 35.208 92.4594 35.1053 92.9074 34.9C93.3554 34.6947 93.7194 34.4707 93.9994 34.228C94.2794 33.9667 94.466 33.7707 94.5594 33.64C94.7274 33.3973 94.858 33.2573 94.9514 33.22C95.0447 33.164 95.194 33.136 95.3994 33.136H96.7434C96.93 33.136 97.0794 33.192 97.1914 33.304C97.322 33.3973 97.378 33.5373 97.3594 33.724C97.3407 34.004 97.1914 34.3493 96.9114 34.76C96.6314 35.152 96.23 35.544 95.7074 35.936C95.1847 36.328 94.55 36.6547 93.8034 36.916C93.0567 37.1587 92.198 37.28 91.2274 37.28ZM87.4194 28.656H95.0914V28.572C95.0914 27.732 94.9327 26.9853 94.6154 26.332C94.3167 25.6787 93.878 25.1653 93.2994 24.792C92.7207 24.4 92.03 24.204 91.2274 24.204C90.4247 24.204 89.734 24.4 89.1554 24.792C88.5954 25.1653 88.166 25.6787 87.8674 26.332C87.5687 26.9853 87.4194 27.732 87.4194 28.572V28.656Z" fill="#45515F"/>
<path d="M101.799 37C101.594 37 101.426 36.9347 101.295 36.804C101.165 36.6733 101.099 36.5053 101.099 36.3V18.1C101.099 17.8947 101.165 17.7267 101.295 17.596C101.426 17.4653 101.594 17.4 101.799 17.4H104.431C104.711 17.4 104.917 17.4747 105.047 17.624C105.197 17.7733 105.29 17.8853 105.327 17.96L110.507 27.424L115.687 17.96C115.725 17.8853 115.809 17.7733 115.939 17.624C116.089 17.4747 116.303 17.4 116.583 17.4H119.187C119.393 17.4 119.561 17.4653 119.691 17.596C119.822 17.7267 119.887 17.8947 119.887 18.1V36.3C119.887 36.5053 119.822 36.6733 119.691 36.804C119.561 36.9347 119.393 37 119.187 37H116.331C116.145 37 115.986 36.9347 115.855 36.804C115.725 36.6733 115.659 36.5053 115.659 36.3V25.016L112.103 31.652C112.029 31.82 111.917 31.9693 111.767 32.1C111.618 32.2307 111.413 32.296 111.151 32.296H109.835C109.593 32.296 109.397 32.2307 109.247 32.1C109.098 31.9693 108.977 31.82 108.883 31.652L105.355 25.016V36.3C105.355 36.5053 105.29 36.6733 105.159 36.804C105.029 36.9347 104.861 37 104.655 37H101.799Z" fill="#45515F"/>
<path d="M130.397 37.28C128.847 37.28 127.55 37.028 126.505 36.524C125.459 36.0013 124.657 35.264 124.097 34.312C123.555 33.36 123.257 32.2493 123.201 30.98C123.182 30.6067 123.173 30.1867 123.173 29.72C123.173 29.2347 123.182 28.8147 123.201 28.46C123.257 27.172 123.574 26.0613 124.153 25.128C124.731 24.176 125.543 23.448 126.589 22.944C127.634 22.4213 128.903 22.16 130.397 22.16C131.871 22.16 133.131 22.4213 134.177 22.944C135.222 23.448 136.034 24.176 136.613 25.128C137.191 26.0613 137.518 27.172 137.593 28.46C137.611 28.8147 137.621 29.2347 137.621 29.72C137.621 30.1867 137.611 30.6067 137.593 30.98C137.518 32.2493 137.201 33.36 136.641 34.312C136.099 35.264 135.306 36.0013 134.261 36.524C133.215 37.028 131.927 37.28 130.397 37.28ZM130.397 34.172C131.311 34.172 131.993 33.892 132.441 33.332C132.907 32.772 133.169 31.9413 133.225 30.84C133.243 30.56 133.253 30.1867 133.253 29.72C133.253 29.2533 133.243 28.88 133.225 28.6C133.169 27.5173 132.907 26.696 132.441 26.136C131.993 25.5573 131.311 25.268 130.397 25.268C129.482 25.268 128.791 25.5573 128.325 26.136C127.858 26.696 127.597 27.5173 127.541 28.6C127.522 28.88 127.513 29.2533 127.513 29.72C127.513 30.1867 127.522 30.56 127.541 30.84C127.597 31.9413 127.858 32.772 128.325 33.332C128.791 33.892 129.482 34.172 130.397 34.172Z" fill="#45515F"/>
<path d="M141.221 37C141.034 37 140.866 36.9347 140.717 36.804C140.586 36.6733 140.521 36.5053 140.521 36.3V23.14C140.521 22.9347 140.586 22.7667 140.717 22.636C140.866 22.5053 141.034 22.44 141.221 22.44H143.965C144.17 22.44 144.338 22.5053 144.469 22.636C144.6 22.7667 144.665 22.9347 144.665 23.14V24.232C145.15 23.6347 145.776 23.14 146.541 22.748C147.325 22.356 148.258 22.16 149.341 22.16C150.442 22.16 151.413 22.412 152.253 22.916C153.093 23.4013 153.746 24.12 154.213 25.072C154.68 26.0053 154.913 27.144 154.913 28.488V36.3C154.913 36.5053 154.848 36.6733 154.717 36.804C154.586 36.9347 154.418 37 154.213 37H151.245C151.04 37 150.872 36.9347 150.741 36.804C150.61 36.6733 150.545 36.5053 150.545 36.3V28.656C150.545 27.6667 150.302 26.9013 149.817 26.36C149.35 25.8 148.66 25.52 147.745 25.52C146.868 25.52 146.168 25.8 145.645 26.36C145.141 26.9013 144.889 27.6667 144.889 28.656V36.3C144.889 36.5053 144.824 36.6733 144.693 36.804C144.562 36.9347 144.394 37 144.189 37H141.221Z" fill="#45515F"/>
<path d="M164.764 37.28C162.617 37.28 160.909 36.6827 159.64 35.488C158.389 34.2933 157.727 32.5573 157.652 30.28C157.652 30.1307 157.652 29.9347 157.652 29.692C157.652 29.4307 157.652 29.2347 157.652 29.104C157.727 27.648 158.053 26.4067 158.632 25.38C159.211 24.3347 160.023 23.5413 161.068 23C162.113 22.44 163.336 22.16 164.736 22.16C166.323 22.16 167.639 22.4867 168.684 23.14C169.729 23.7747 170.513 24.652 171.036 25.772C171.577 26.8733 171.848 28.1427 171.848 29.58V30.224C171.848 30.4107 171.783 30.5787 171.652 30.728C171.521 30.8587 171.353 30.924 171.148 30.924H162.02C162.02 30.924 162.02 30.952 162.02 31.008C162.02 31.0453 162.02 31.0827 162.02 31.12C162.039 31.7173 162.151 32.268 162.356 32.772C162.561 33.2573 162.86 33.6493 163.252 33.948C163.663 34.2467 164.157 34.396 164.736 34.396C165.184 34.396 165.557 34.3307 165.856 34.2C166.155 34.0507 166.397 33.892 166.584 33.724C166.789 33.5373 166.939 33.3787 167.032 33.248C167.2 33.0427 167.331 32.9213 167.424 32.884C167.536 32.828 167.695 32.8 167.9 32.8H170.868C171.036 32.8 171.176 32.856 171.288 32.968C171.419 33.08 171.475 33.22 171.456 33.388C171.437 33.7053 171.279 34.088 170.98 34.536C170.7 34.9653 170.28 35.3947 169.72 35.824C169.16 36.2347 168.46 36.58 167.62 36.86C166.799 37.14 165.847 37.28 164.764 37.28ZM162.02 28.348H167.48V28.264C167.48 27.6107 167.368 27.0413 167.144 26.556C166.939 26.052 166.631 25.66 166.22 25.38C165.809 25.1 165.315 24.96 164.736 24.96C164.157 24.96 163.663 25.1 163.252 25.38C162.86 25.66 162.552 26.052 162.328 26.556C162.123 27.0413 162.02 27.6107 162.02 28.264V28.348Z" fill="#45515F"/>
<path d="M176.705 42.32C176.556 42.32 176.416 42.264 176.285 42.152C176.173 42.04 176.117 41.9 176.117 41.732C176.117 41.6947 176.127 41.6387 176.145 41.564C176.164 41.508 176.192 41.4333 176.229 41.34L178.413 36.104L173.037 23.42C172.981 23.2707 172.953 23.1493 172.953 23.056C172.972 22.888 173.037 22.748 173.149 22.636C173.261 22.5053 173.401 22.44 173.569 22.44H176.313C176.537 22.44 176.705 22.5053 176.817 22.636C176.929 22.748 177.013 22.8693 177.069 23L180.541 31.652L184.097 23C184.172 22.8507 184.265 22.72 184.377 22.608C184.489 22.496 184.667 22.44 184.909 22.44H187.569C187.737 22.44 187.877 22.5053 187.989 22.636C188.12 22.748 188.185 22.8787 188.185 23.028C188.185 23.1213 188.157 23.252 188.101 23.42L180.177 41.76C180.103 41.9093 180 42.04 179.869 42.152C179.757 42.264 179.58 42.32 179.337 42.32H176.705Z" fill="#45515F"/>
<path d="M37 30.924C37.012 21.8539 29.1229 9.66125 29.1229 9.66125C29.3231 11.0281 29.2491 12.4214 28.9051 13.759C28.4537 14.9228 27.7655 15.9788 26.8849 16.8594C26.7977 13.7941 25.8951 10.8085 24.2711 8.21357C22.1865 4.90338 19.3995 2.09845 16.1103 0C16.4232 2.82364 16.337 5.67763 15.8545 8.47697C14.4717 14.9674 10.1276 18.0799 4.79623 23.8425C2.55819 26.4222 -0.62901 31.4488 0.108343 36.7107C0.223489 37.5562 0.431237 38.3863 0.727799 39.1859C1.04261 40.0094 1.40218 40.8148 1.80486 41.5987C2.42286 42.8151 3.33863 43.8531 4.46579 44.6147C5.59294 45.3763 6.89433 45.8364 8.2472 45.9517C8.28717 45.9517 9.08846 45.9859 9.33025 45.9859L28.3915 46C28.6273 46 29.003 46 29.1609 45.9739L29.2648 45.9598C30.0221 45.6803 36.984 42.799 37 30.924Z" fill="#FF8300"/>
<path fill-rule="evenodd" clip-rule="evenodd" d="M29.1461 9.80692C29.346 11.15 29.272 12.5192 28.9287 13.8335C28.4784 14.9784 27.7914 16.0173 26.9119 16.8835C26.8247 13.87 25.9236 10.9348 24.3026 8.38369C23.9754 7.89545 23.6443 7.43092 23.3051 7C21.5397 12.1612 17.5599 15.148 12.7881 20.2281C10.5539 22.7662 7.37205 27.706 8.10816 32.879C8.12611 33.0075 8.16801 33.2091 8.23384 33.472C8.85971 35.8623 10.2608 37.9827 12.2215 39.507C14.1822 41.0313 16.594 41.8751 19.086 41.9086L23.6024 41.9995H25.4297C28.4462 42.0267 31.352 40.8752 33.5177 38.7944C35.6834 36.7135 36.9345 33.871 37 30.8825V30.7185C37.0219 21.7937 29.1461 9.80692 29.1461 9.80692Z" fill="#FFA511"/>
</g>
</svg>
