<svg width="44" height="56" viewBox="0 0 44 56" fill="none" xmlns="http://www.w3.org/2000/svg">
<path fill-rule="evenodd" clip-rule="evenodd" d="M43.9497 37.3485C43.9497 51.1712 31.8805 54.4075 28.8157 55.006C28.5754 55.0538 28.4424 55.083 28.2125 55.1098C28.1204 55.1203 27.901 55.125 27.7634 55.125L16.6334 55.1168C16.4922 55.1168 16.0244 55.0982 16.001 55.097C15.5449 55.0632 14.6349 54.9803 13.4694 54.7762C9.07336 54.0167 1.04669 51.6192 0.17169 44.1747C-0.55981 37.9447 2.10252 34.8343 5.44619 30.6763C8.14119 27.3245 6.02952 22.365 6.01319 22.3183C6.08319 22.3557 10.555 24.815 11.6225 26.9197C12.1693 27.9167 12.6074 28.9697 12.9292 30.0603C12.9082 29.8888 11.9725 22.1713 15.9625 16.982C19.998 11.732 20.845 10.1232 20.9209 7.43866C20.7584 5.15873 20.1616 2.93087 19.1627 0.875C23.0644 3.35006 26.371 6.65666 28.846 10.5583C30.7746 13.6184 31.8455 17.1405 31.947 20.7562C32.9924 19.7174 33.809 18.4716 34.3445 17.0987C34.7531 15.5218 34.8411 13.879 34.6035 12.2675L37.0699 16.4675C39.8384 21.539 43.9497 30.254 43.9497 37.3485Z" fill="#D75C1E"/>
<path fill-rule="evenodd" clip-rule="evenodd" d="M43.9497 37.3485C43.9497 30.254 39.8384 21.539 37.0664 16.4733L34.6 12.2733C34.8377 13.8848 34.7496 15.5276 34.341 17.1045C33.8063 18.4779 32.9896 19.7238 31.9435 20.762C31.8421 17.1467 30.7711 13.625 28.8425 10.5653C27.838 9.04628 26.7207 7.60489 25.5 6.25333C25.2457 8.463 24.17 10.262 20.6 14.8995C16.6077 20.0888 17.5445 27.8063 17.5667 27.9778C17.2445 26.8871 16.8069 25.8338 16.2612 24.836C15.5528 23.7403 14.6243 22.8039 13.5347 22.0862C12.8708 24.6888 12.6647 27.3871 12.9257 30.0603C12.6035 28.9696 12.1659 27.9163 11.6202 26.9185C11.5058 26.699 11.3711 26.4909 11.2177 26.2967C11.0096 27.1351 10.6227 27.9187 10.0837 28.5938C6.74002 32.7518 4.07769 35.8622 4.80919 42.0922C5.68419 49.5367 13.7097 51.9353 18.1092 52.6937C19.0522 52.8628 20.0042 52.9766 20.9605 53.0343L32.7602 53.0425L32.9095 53.0203C33.8858 52.8591 34.8487 52.6252 35.79 52.3203C39.8302 49.8867 43.9497 45.4242 43.9497 37.3485Z" fill="#FF6600"/>
<path d="M32.7893 46.3785C32.7963 41.1157 28.1903 34.041 28.1903 34.041C28.3072 34.8341 28.264 35.6426 28.0632 36.4187C27.7996 37.0939 27.3979 37.7067 26.8837 38.2177C26.8328 36.4391 26.3058 34.7067 25.3577 33.201C24.1405 31.2803 22.5134 29.6528 20.593 28.4352C20.7757 30.0736 20.7254 31.7295 20.4437 33.3538C19.6364 37.1198 17.1 38.9258 13.9874 42.2695C12.6807 43.7663 10.8199 46.683 11.2504 49.7362C11.3176 50.2268 11.4389 50.7084 11.612 51.1723C11.7958 51.6502 12.0058 52.1175 12.2409 52.5723C12.6017 53.2782 13.1363 53.8804 13.7944 54.3223C14.4525 54.7643 15.2123 55.0313 16.0022 55.0982C16.0255 55.0982 16.4934 55.118 16.6345 55.118L27.7633 55.1262C27.901 55.1262 28.1203 55.1262 28.2125 55.111L28.2732 55.1028C28.7153 54.9407 32.78 53.2688 32.7893 46.3785Z" fill="#FF8300"/>
<path fill-rule="evenodd" clip-rule="evenodd" d="M28.1903 34.041C28.3072 34.8337 28.264 35.6418 28.0632 36.4175C27.7998 37.0932 27.3981 37.7064 26.8837 38.2177C26.8328 36.4391 26.3058 34.7067 25.3577 33.201C25.1663 32.9128 24.9727 32.6387 24.7744 32.3843C23.7419 35.4305 21.4144 37.1933 18.6237 40.1917C17.317 41.6897 15.4562 44.6052 15.8867 47.6583C15.8972 47.7342 15.9217 47.8532 15.9602 48.0083C16.3262 49.4191 17.1456 50.6706 18.2923 51.5702C19.439 52.4699 20.8495 52.9679 22.3069 52.9877L24.9482 53.0413H26.0169C27.781 53.0574 29.4804 52.3777 30.747 51.1496C32.0136 49.9215 32.7452 48.2438 32.7835 46.48V46.3832C32.7964 41.1157 28.1903 34.041 28.1903 34.041Z" fill="#FFA511"/>
</svg>
