<svg width="162" height="31" viewBox="0 0 162 31" fill="none" xmlns="http://www.w3.org/2000/svg">
<path d="M1.62997 24.0001C1.38797 24.0001 1.20097 23.9341 1.06897 23.8021C0.936972 23.6481 0.870972 23.4611 0.870972 23.2411V1.69211C0.870972 1.45011 0.936972 1.26311 1.06897 1.13111C1.20097 0.97711 1.38797 0.90011 1.62997 0.90011H15.094C15.336 0.90011 15.523 0.97711 15.655 1.13111C15.787 1.26311 15.853 1.45011 15.853 1.69211V3.01211C15.853 3.25411 15.787 3.44111 15.655 3.57311C15.523 3.70511 15.336 3.77111 15.094 3.77111H4.07197V11.4601H14.434C14.676 11.4601 14.863 11.5371 14.995 11.6911C15.127 11.8231 15.193 12.0101 15.193 12.2521V13.5721C15.193 13.7921 15.127 13.9791 14.995 14.1331C14.863 14.2651 14.676 14.3311 14.434 14.3311H4.07197V23.2411C4.07197 23.4611 3.99497 23.6481 3.84097 23.8021C3.70897 23.9341 3.52197 24.0001 3.27997 24.0001H1.62997Z" fill="white"/>
<path d="M20.3113 24.0001C20.0913 24.0001 19.9043 23.9341 19.7503 23.8021C19.6183 23.6481 19.5523 23.4611 19.5523 23.2411V7.59911C19.5523 7.37911 19.6183 7.20311 19.7503 7.07111C19.9043 6.91711 20.0913 6.84011 20.3113 6.84011H21.8953C22.1153 6.84011 22.2913 6.91711 22.4233 7.07111C22.5553 7.20311 22.6213 7.37911 22.6213 7.59911V23.2411C22.6213 23.4611 22.5553 23.6481 22.4233 23.8021C22.2913 23.9341 22.1153 24.0001 21.8953 24.0001H20.3113ZM20.0473 3.63911C19.8273 3.63911 19.6403 3.57311 19.4863 3.44111C19.3543 3.28711 19.2883 3.10011 19.2883 2.88011V1.09811C19.2883 0.87811 19.3543 0.70211 19.4863 0.57011C19.6403 0.416111 19.8273 0.339111 20.0473 0.339111H22.1263C22.3463 0.339111 22.5223 0.416111 22.6543 0.57011C22.8083 0.70211 22.8853 0.87811 22.8853 1.09811V2.88011C22.8853 3.10011 22.8083 3.28711 22.6543 3.44111C22.5223 3.57311 22.3463 3.63911 22.1263 3.63911H20.0473Z" fill="white"/>
<path d="M28.6258 24.0001C28.4058 24.0001 28.2188 23.9341 28.0648 23.8021C27.9328 23.6481 27.8668 23.4611 27.8668 23.2411V7.63211C27.8668 7.41211 27.9328 7.22511 28.0648 7.07111C28.2188 6.91711 28.4058 6.84011 28.6258 6.84011H30.1438C30.3638 6.84011 30.5508 6.91711 30.7048 7.07111C30.8588 7.22511 30.9358 7.41211 30.9358 7.63211V9.08411C31.3758 8.33611 31.9808 7.77511 32.7508 7.40111C33.5208 7.02711 34.4448 6.84011 35.5228 6.84011H36.8428C37.0628 6.84011 37.2388 6.91711 37.3708 7.07111C37.5028 7.20311 37.5688 7.37911 37.5688 7.59911V8.95211C37.5688 9.17211 37.5028 9.34811 37.3708 9.48011C37.2388 9.61211 37.0628 9.67811 36.8428 9.67811H34.8628C33.6748 9.67811 32.7398 10.0301 32.0578 10.7341C31.3758 11.4161 31.0348 12.3511 31.0348 13.5391V23.2411C31.0348 23.4611 30.9578 23.6481 30.8038 23.8021C30.6498 23.9341 30.4628 24.0001 30.2428 24.0001H28.6258Z" fill="white"/>
<path d="M46.9116 24.3301C44.6456 24.3301 42.8416 23.6371 41.4996 22.2511C40.1576 20.8431 39.4206 18.9291 39.2886 16.5091C39.2666 16.2231 39.2556 15.8601 39.2556 15.4201C39.2556 14.9581 39.2666 14.5841 39.2886 14.2981C39.3766 12.7361 39.7396 11.3721 40.3776 10.2061C41.0156 9.01811 41.8846 8.10511 42.9846 7.46711C44.1066 6.82911 45.4156 6.51011 46.9116 6.51011C48.5836 6.51011 49.9806 6.86211 51.1026 7.56611C52.2466 8.27011 53.1156 9.27111 53.7096 10.5691C54.3036 11.8671 54.6006 13.3851 54.6006 15.1231V15.6841C54.6006 15.9261 54.5236 16.1131 54.3696 16.2451C54.2376 16.3771 54.0616 16.4431 53.8416 16.4431H42.4236C42.4236 16.4651 42.4236 16.5091 42.4236 16.5751C42.4236 16.6411 42.4236 16.6961 42.4236 16.7401C42.4676 17.6421 42.6656 18.4891 43.0176 19.2811C43.3696 20.0511 43.8756 20.6781 44.5356 21.1621C45.1956 21.6461 45.9876 21.8881 46.9116 21.8881C47.7036 21.8881 48.3636 21.7671 48.8916 21.5251C49.4196 21.2831 49.8486 21.0191 50.1786 20.7331C50.5086 20.4251 50.7286 20.1941 50.8386 20.0401C51.0366 19.7541 51.1906 19.5891 51.3006 19.5451C51.4106 19.4791 51.5866 19.4461 51.8286 19.4461H53.4126C53.6326 19.4461 53.8086 19.5121 53.9406 19.6441C54.0946 19.7541 54.1606 19.9191 54.1386 20.1391C54.1166 20.4691 53.9406 20.8761 53.6106 21.3601C53.2806 21.8221 52.8076 22.2841 52.1916 22.7461C51.5756 23.2081 50.8276 23.5931 49.9476 23.9011C49.0676 24.1871 48.0556 24.3301 46.9116 24.3301ZM42.4236 14.1661H51.4656V14.0671C51.4656 13.0771 51.2786 12.1971 50.9046 11.4271C50.5526 10.6571 50.0356 10.0521 49.3536 9.61211C48.6716 9.15011 47.8576 8.91911 46.9116 8.91911C45.9656 8.91911 45.1516 9.15011 44.4696 9.61211C43.8096 10.0521 43.3036 10.6571 42.9516 11.4271C42.5996 12.1971 42.4236 13.0771 42.4236 14.0671V14.1661Z" fill="white"/>
<path d="M59.3715 24.0001C59.1515 24.0001 58.9535 23.9231 58.7775 23.7691C58.6235 23.6151 58.5465 23.4171 58.5465 23.1751V1.72511C58.5465 1.48311 58.6235 1.28511 58.7775 1.13111C58.9535 0.97711 59.1515 0.90011 59.3715 0.90011H62.4405C62.7705 0.90011 63.0125 0.98811 63.1665 1.16411C63.3425 1.34011 63.4635 1.47211 63.5295 1.56011L69.6015 12.7471L75.7395 1.56011C75.7835 1.47211 75.8825 1.34011 76.0365 1.16411C76.2125 0.98811 76.4655 0.90011 76.7955 0.90011H79.8645C80.1065 0.90011 80.3045 0.97711 80.4585 1.13111C80.6125 1.28511 80.6895 1.48311 80.6895 1.72511V23.1751C80.6895 23.4171 80.6125 23.6151 80.4585 23.7691C80.3045 23.9231 80.1065 24.0001 79.8645 24.0001H76.4985C76.2785 24.0001 76.0915 23.9231 75.9375 23.7691C75.7835 23.6151 75.7065 23.4171 75.7065 23.1751V9.84311L71.5155 17.6971C71.4055 17.8951 71.2625 18.0711 71.0865 18.2251C70.9105 18.3791 70.6795 18.4561 70.3935 18.4561H68.8425C68.5565 18.4561 68.3255 18.3791 68.1495 18.2251C67.9735 18.0711 67.8305 17.8951 67.7205 17.6971L63.5295 9.84311V23.1751C63.5295 23.4171 63.4525 23.6151 63.2985 23.7691C63.1445 23.9231 62.9575 24.0001 62.7375 24.0001H59.3715Z" fill="white"/>
<path d="M93.0756 24.3301C91.2496 24.3301 89.7205 24.0331 88.4885 23.4391C87.2565 22.8231 86.3106 21.9541 85.6506 20.8321C85.0126 19.7101 84.6606 18.4011 84.5946 16.9051C84.5726 16.4651 84.5615 15.9701 84.5615 15.4201C84.5615 14.8481 84.5726 14.3531 84.5946 13.9351C84.6606 12.4171 85.0346 11.1081 85.7166 10.0081C86.3986 8.88611 87.3555 8.02811 88.5875 7.43411C89.8195 6.81811 91.3156 6.51011 93.0756 6.51011C94.8136 6.51011 96.2985 6.81811 97.5305 7.43411C98.7625 8.02811 99.7196 8.88611 100.402 10.0081C101.084 11.1081 101.458 12.4171 101.524 13.9351C101.568 14.3531 101.59 14.8481 101.59 15.4201C101.59 15.9701 101.568 16.4651 101.524 16.9051C101.458 18.4011 101.095 19.7101 100.435 20.8321C99.7966 21.9541 98.8615 22.8231 97.6295 23.4391C96.3975 24.0331 94.8796 24.3301 93.0756 24.3301ZM93.0756 20.7001C94.1536 20.7001 94.9675 20.3701 95.5175 19.7101C96.0675 19.0281 96.3645 18.0381 96.4085 16.7401C96.4305 16.4101 96.4416 15.9701 96.4416 15.4201C96.4416 14.8701 96.4305 14.4301 96.4085 14.1001C96.3645 12.8241 96.0675 11.8451 95.5175 11.1631C94.9675 10.4811 94.1536 10.1401 93.0756 10.1401C91.9976 10.1401 91.1725 10.4811 90.6005 11.1631C90.0505 11.8451 89.7535 12.8241 89.7095 14.1001C89.6875 14.4301 89.6766 14.8701 89.6766 15.4201C89.6766 15.9701 89.6875 16.4101 89.7095 16.7401C89.7535 18.0381 90.0505 19.0281 90.6005 19.7101C91.1725 20.3701 91.9976 20.7001 93.0756 20.7001Z" fill="white"/>
<path d="M105.833 24.0001C105.613 24.0001 105.426 23.9231 105.272 23.7691C105.118 23.6151 105.041 23.4171 105.041 23.1751V7.66511C105.041 7.42311 105.118 7.22511 105.272 7.07111C105.426 6.91711 105.613 6.84011 105.833 6.84011H109.067C109.309 6.84011 109.507 6.91711 109.661 7.07111C109.815 7.22511 109.892 7.42311 109.892 7.66511V8.95211C110.464 8.24811 111.201 7.66511 112.103 7.20311C113.005 6.74111 114.105 6.51011 115.403 6.51011C116.701 6.51011 117.834 6.80711 118.802 7.40111C119.792 7.97311 120.562 8.82011 121.112 9.94211C121.684 11.0421 121.97 12.3841 121.97 13.9681V23.1751C121.97 23.4171 121.882 23.6151 121.706 23.7691C121.552 23.9231 121.365 24.0001 121.145 24.0001H117.647C117.405 24.0001 117.207 23.9231 117.053 23.7691C116.899 23.6151 116.822 23.4171 116.822 23.1751V14.1661C116.822 13.0001 116.536 12.0981 115.964 11.4601C115.414 10.8001 114.6 10.4701 113.522 10.4701C112.488 10.4701 111.663 10.8001 111.047 11.4601C110.431 12.0981 110.123 13.0001 110.123 14.1661V23.1751C110.123 23.4171 110.046 23.6151 109.892 23.7691C109.738 23.9231 109.551 24.0001 109.331 24.0001H105.833Z" fill="white"/>
<path d="M133.58 24.3301C131.05 24.3301 129.037 23.6261 127.541 22.2181C126.067 20.8101 125.286 18.7641 125.198 16.0801C125.198 15.9041 125.198 15.6731 125.198 15.3871C125.198 15.0791 125.198 14.8371 125.198 14.6611C125.286 12.9671 125.671 11.5151 126.353 10.3051C127.035 9.07311 127.992 8.13811 129.224 7.50011C130.456 6.84011 131.897 6.51011 133.547 6.51011C135.395 6.51011 136.935 6.89511 138.167 7.66511C139.421 8.41311 140.356 9.44711 140.972 10.7671C141.61 12.0651 141.929 13.5611 141.929 15.2551V16.0141C141.929 16.2341 141.841 16.4211 141.665 16.5751C141.511 16.7291 141.324 16.8061 141.104 16.8061H130.313C130.313 16.8281 130.313 16.8721 130.313 16.9381C130.313 16.9821 130.313 17.0261 130.313 17.0701C130.335 17.7741 130.467 18.4231 130.709 19.0171C130.973 19.5891 131.336 20.0511 131.798 20.4031C132.282 20.7551 132.854 20.9311 133.514 20.9311C134.064 20.9311 134.515 20.8541 134.867 20.7001C135.219 20.5461 135.505 20.3591 135.725 20.1391C135.967 19.9191 136.143 19.7321 136.253 19.5781C136.451 19.3581 136.605 19.2261 136.715 19.1821C136.847 19.1161 137.045 19.0831 137.309 19.0831H140.741C140.961 19.0831 141.137 19.1491 141.269 19.2811C141.423 19.3911 141.489 19.5561 141.467 19.7761C141.445 20.1281 141.258 20.5681 140.906 21.0961C140.576 21.6021 140.081 22.1081 139.421 22.6141C138.761 23.0981 137.936 23.5051 136.946 23.8351C135.978 24.1651 134.856 24.3301 133.58 24.3301ZM130.313 13.8031H136.781V13.7371C136.781 12.9451 136.649 12.2631 136.385 11.6911C136.143 11.0971 135.78 10.6351 135.296 10.3051C134.812 9.97511 134.229 9.81011 133.547 9.81011C132.865 9.81011 132.282 9.97511 131.798 10.3051C131.314 10.6351 130.94 11.0971 130.676 11.6911C130.434 12.2631 130.313 12.9451 130.313 13.7371V13.8031Z" fill="white"/>
<path d="M147.653 30.2701C147.477 30.2701 147.312 30.2041 147.158 30.0721C147.026 29.9401 146.96 29.7751 146.96 29.5771C146.96 29.5331 146.971 29.4671 146.993 29.3791C147.015 29.3131 147.048 29.2251 147.092 29.1151L149.666 22.9441L143.33 7.99511C143.264 7.81911 143.231 7.67611 143.231 7.56611C143.253 7.36811 143.33 7.20311 143.462 7.07111C143.594 6.91711 143.759 6.84011 143.957 6.84011H147.158C147.444 6.84011 147.653 6.91711 147.785 7.07111C147.917 7.20311 148.016 7.34611 148.082 7.50011L152.174 17.7301L156.365 7.50011C156.453 7.32411 156.563 7.17011 156.695 7.03811C156.827 6.90611 157.036 6.84011 157.322 6.84011H160.457C160.655 6.84011 160.82 6.91711 160.952 7.07111C161.106 7.20311 161.183 7.35711 161.183 7.53311C161.183 7.64311 161.139 7.79711 161.051 7.99511L151.712 29.6101C151.646 29.7861 151.536 29.9401 151.382 30.0721C151.25 30.2041 151.041 30.2701 150.755 30.2701H147.653Z" fill="white"/>
</svg>
