<svg width="29" height="35" viewBox="0 0 29 35" fill="none" xmlns="http://www.w3.org/2000/svg">
<g opacity="0.9">
<path d="M28.1522 23.5292C28.1613 16.628 22.1587 7.35095 22.1587 7.35095C22.3111 8.39093 22.2547 9.45109 21.993 10.4688C21.6495 11.3543 21.126 12.1578 20.4559 12.8278C20.3896 10.4955 19.7028 8.22383 18.4672 6.24945C16.881 3.73083 14.7605 1.59665 12.2578 0C12.4959 2.14842 12.4304 4.31993 12.0632 6.44987C11.0111 11.3882 7.70575 13.7564 3.64931 18.141C1.94645 20.1038 -0.478594 23.9284 0.0824351 27.9321C0.170046 28.5754 0.328115 29.207 0.55376 29.8153C0.793293 30.4419 1.06687 31.0548 1.37326 31.6511C1.84348 32.5767 2.54026 33.3665 3.39788 33.9459C4.2555 34.5254 5.24568 34.8756 6.27504 34.9633C6.30545 34.9633 6.91514 34.9893 7.0991 34.9893L21.6023 35C21.7817 35 22.0675 35 22.1876 34.9801L22.2667 34.9694C22.8429 34.7568 28.14 32.5645 28.1522 23.5292Z" fill="#FF8300"/>
<path fill-rule="evenodd" clip-rule="evenodd" d="M22.1763 7.46184C22.3284 8.48376 22.2721 9.52551 22.0109 10.5255C21.6682 11.3966 21.1455 12.1871 20.4763 12.8462C20.41 10.5533 19.7244 8.32004 18.491 6.37895C18.2421 6.00746 17.9901 5.65402 17.7321 5.32614C16.3888 9.25312 13.3607 11.5257 9.73002 15.391C8.03004 17.3222 5.60908 21.0807 6.16916 25.0167C6.18282 25.1145 6.2147 25.2679 6.26479 25.4679C6.74099 27.2866 7.80701 28.8999 9.29887 30.0597C10.7907 31.2195 12.6258 31.8615 14.5218 31.887L17.9582 31.9562H19.3486C21.6437 31.9769 23.8547 31.1007 25.5025 29.5175C27.1503 27.9343 28.1022 25.7715 28.152 23.4976V23.3728C28.1687 16.5822 22.1763 7.46184 22.1763 7.46184Z" fill="#FFA511"/>
</g>
</svg>
