<svg width="17" height="17" viewBox="0 0 17 17" fill="none" xmlns="http://www.w3.org/2000/svg">
<path d="M15.8166 9.47838C15.3211 9.47838 14.8831 9.79769 14.7303 10.2691C13.9042 12.8211 11.5088 14.6727 8.68504 14.6727C5.17942 14.6727 2.32725 11.8203 2.32725 8.31439C2.32725 5.50226 4.16355 3.11457 6.69988 2.27908C7.18961 2.11772 7.52141 1.65983 7.52141 1.14362C7.52141 0.777971 7.34645 0.434238 7.05099 0.219222C6.75554 0.00387681 6.37483 -0.0568945 6.02715 0.0550527C2.53465 1.17982 0 4.45328 0 8.31451C0 13.1038 3.89596 17 8.68501 17C12.5308 17 15.7933 14.4853 16.9302 11.015C17.0472 10.6581 16.9858 10.2669 16.7654 9.96275C16.5455 9.65875 16.1927 9.47838 15.8166 9.47838Z" fill="#F28925"/>
<path d="M10.6384 2.26901C12.569 2.894 14.0967 4.41833 14.7262 6.3469C14.8831 6.82701 15.3302 7.15119 15.8353 7.15119H15.8593C16.224 7.15119 16.5667 6.9768 16.7814 6.68218C16.9957 6.38759 17.057 6.00774 16.9451 5.66063C16.0935 3.01243 14.0032 0.917868 11.3572 0.0599849C11.0066 -0.0536064 10.622 0.00743401 10.3237 0.224154C10.0254 0.441173 9.84873 0.787806 9.84873 1.15674V1.18206C9.84861 1.67696 10.1679 2.11644 10.6384 2.26901Z" fill="#F28925"/>
<path d="M11 8.5C11 9.88071 9.88071 11 8.5 11C7.11929 11 6 9.88071 6 8.5C6 7.11929 7.11929 6 8.5 6C9.88071 6 11 7.11929 11 8.5Z" fill="#F28925"/>
</svg>
