<svg width="17" height="18" viewBox="0 0 17 18" fill="none" xmlns="http://www.w3.org/2000/svg">
<path d="M3.475 18C3.29167 18 3.14167 17.9417 3.025 17.825C2.925 17.7083 2.875 17.5667 2.875 17.4V14.65H0.975C0.808333 14.65 0.666667 14.5917 0.55 14.475C0.433333 14.3583 0.375 14.2167 0.375 14.05V13.275C0.375 13.1083 0.433333 12.9667 0.55 12.85C0.666667 12.7333 0.808333 12.675 0.975 12.675H2.875V11.35H0.975C0.808333 11.35 0.666667 11.2917 0.55 11.175C0.433333 11.0583 0.375 10.9083 0.375 10.725V9.375C0.375 9.19167 0.433333 9.05 0.55 8.95C0.666667 8.83333 0.808333 8.775 0.975 8.775H2.875V1.125C2.875 0.941666 2.925 0.791666 3.025 0.675C3.14167 0.558332 3.29167 0.499999 3.475 0.499999H10.15C11.4667 0.499999 12.6083 0.708332 13.575 1.125C14.5417 1.525 15.2917 2.14167 15.825 2.975C16.3583 3.79167 16.625 4.81667 16.625 6.05C16.625 7.25 16.3583 8.24167 15.825 9.025C15.2917 9.79167 14.5417 10.375 13.575 10.775C12.6083 11.1583 11.4667 11.35 10.15 11.35H6.45V12.675H10.525C10.7083 12.675 10.85 12.7333 10.95 12.85C11.0667 12.9667 11.125 13.1083 11.125 13.275V14.05C11.125 14.2167 11.0667 14.3583 10.95 14.475C10.85 14.5917 10.7083 14.65 10.525 14.65H6.45V17.4C6.45 17.5667 6.39167 17.7083 6.275 17.825C6.15833 17.9417 6.00833 18 5.825 18H3.475ZM6.4 8.775H10.025C10.9917 8.775 11.7333 8.55 12.25 8.1C12.7833 7.63333 13.05 6.95 13.05 6.05C13.05 5.21667 12.8083 4.55 12.325 4.05C11.8417 3.53333 11.075 3.275 10.025 3.275H6.4V8.775Z" fill="#F28925"/>
</svg>
