<svg width="10" height="6" viewBox="0 0 10 6" fill="none" xmlns="http://www.w3.org/2000/svg">
<path d="M5.5777 5.63031L9.75612 1.74588C9.91873 1.60283 10 1.42419 10 1.20963C10 0.995059 9.91864 0.816427 9.75612 0.673376L9.27467 0.220577C9.11634 0.0735813 8.92387 8.338e-05 8.69709 8.33701e-05C8.47459 8.33603e-05 8.27984 0.0735604 8.113 0.220577L4.99998 3.1161L1.88054 0.220452C1.72221 0.0734976 1.52975 -3.70246e-07 1.30294 -3.80161e-07C1.08046 -3.89885e-07 0.885643 0.0734767 0.718879 0.220452L0.237491 0.673292C0.0791559 0.820267 -4.36715e-08 0.999086 -5.28708e-08 1.20954C-6.20738e-08 1.42008 0.0791559 1.59886 0.237491 1.74579L4.41592 5.63031C4.5828 5.77734 4.7775 5.85091 5 5.85091C5.22679 5.85093 5.41936 5.77734 5.5777 5.63031Z" fill="#FF9744"/>
</svg>
