<svg width="17" height="17" viewBox="0 0 17 17" fill="none" xmlns="http://www.w3.org/2000/svg">
<path d="M14.45 2.55H13.6V0.85C13.6 0.624566 13.5104 0.408365 13.351 0.248959C13.1916 0.0895533 12.9754 0 12.75 0C12.5246 0 12.3084 0.0895533 12.149 0.248959C11.9896 0.408365 11.9 0.624566 11.9 0.85V2.55H5.1V0.85C5.1 0.624566 5.01045 0.408365 4.85104 0.248959C4.69163 0.0895533 4.47543 0 4.25 0C4.02457 0 3.80837 0.0895533 3.64896 0.248959C3.48955 0.408365 3.4 0.624566 3.4 0.85V2.55H2.55C1.8737 2.55 1.2251 2.81866 0.746878 3.29688C0.26866 3.7751 0 4.4237 0 5.1V5.95H17V5.1C17 4.4237 16.7313 3.7751 16.2531 3.29688C15.7749 2.81866 15.1263 2.55 14.45 2.55Z" fill="#F28925"/>
<path d="M0 14.45C0 15.1263 0.26866 15.7749 0.746878 16.2531C1.2251 16.7313 1.8737 17 2.55 17H14.45C15.1263 17 15.7749 16.7313 16.2531 16.2531C16.7313 15.7749 17 15.1263 17 14.45V7.65H0V14.45Z" fill="#F28925"/>
</svg>
