<svg width="16" height="16" viewBox="0 0 16 16" fill="none" xmlns="http://www.w3.org/2000/svg">
<path d="M9.9999 8.66663C9.63126 8.66663 9.33328 8.96533 9.33328 9.33325V12C9.33328 12.3673 9.03458 12.6666 8.66654 12.6666C7.56198 12.6666 6.66656 11.7712 6.66656 10.6666V2.66663C6.66656 2.09729 6.30389 1.58862 5.75861 1.39929C5.72217 1.3871 5.73094 1.33325 5.76937 1.33325H8.66654C9.03458 1.33325 9.33328 1.63257 9.33328 2V4C9.33328 4.36792 9.63126 4.66663 9.9999 4.66663C10.3686 4.66663 10.6665 4.36792 10.6665 4V2C10.6665 0.897339 9.76919 0 8.66654 0H1.49999C1.45148 0 1.40491 0.00871562 1.3569 0.0018246C1.34913 0.000710726 1.34131 0 1.33336 0C0.598017 0 0 0.5979 0 1.33325V13.3333C0 13.9026 0.362667 14.4113 0.90795 14.6006L4.92 15.938C5.05598 15.98 5.19124 16 5.33332 16C6.06867 16 6.66656 15.402 6.66656 14.6666C6.66656 14.2985 6.96502 14 7.33319 14H8.66654C9.76919 14 10.6665 13.1027 10.6665 12V9.33325C10.6665 8.96533 10.3686 8.66663 9.9999 8.66663Z" fill="#45515F"/>
<path d="M15.8045 6.19531L13.1378 3.52869C12.9473 3.33801 12.6605 3.28064 12.4113 3.38391C12.1626 3.4873 11.9999 3.73059 11.9999 4C11.9999 5.10457 11.1045 6 9.99989 6H9.33329C8.96525 6 8.66654 6.29858 8.66654 6.66663C8.66654 7.03467 8.96525 7.33325 9.33329 7.33325H9.99989C11.1045 7.33325 11.9999 8.22868 11.9999 9.33325C11.9999 9.60266 12.1626 9.84595 12.4113 9.94934C12.6605 10.0526 12.9473 9.99524 13.1378 9.80469L15.8045 7.13794C16.0652 6.87732 16.0652 6.45593 15.8045 6.19531Z" fill="#45515F"/>
</svg>
