<svg width="14" height="14" viewBox="0 0 14 14" fill="none" xmlns="http://www.w3.org/2000/svg">
<path d="M10.6438 9.26127C10.1864 8.80972 9.61543 8.80972 9.16094 9.26127C8.81426 9.60504 8.46757 9.9488 8.12671 10.2984C8.03348 10.3945 7.95482 10.4149 7.8412 10.3508C7.61687 10.2285 7.37798 10.1294 7.16239 9.99542C6.15729 9.36324 5.31534 8.55044 4.56952 7.63567C4.19953 7.1812 3.87032 6.69469 3.64017 6.14699C3.59355 6.03629 3.60229 5.96346 3.69261 5.87315C4.03929 5.53812 4.37724 5.19435 4.7181 4.85059C5.19298 4.37281 5.19298 3.81347 4.71519 3.33278C4.44425 3.05893 4.17331 2.79091 3.90237 2.51706C3.62269 2.23739 3.34592 1.9548 3.06333 1.67804C2.60593 1.23231 2.03492 1.23231 1.58044 1.68095C1.23084 2.02472 0.895801 2.37723 0.540374 2.71516C0.211167 3.02688 0.0451061 3.40852 0.0101461 3.85425C-0.0452074 4.57965 0.132506 5.26427 0.383053 5.93141C0.895801 7.3123 1.67658 8.53878 2.62341 9.66331C3.90237 11.184 5.42896 12.3872 7.21483 13.2554C8.01891 13.6457 8.85213 13.9458 9.75818 13.9953C10.3816 14.0303 10.9235 13.873 11.3576 13.3865C11.6548 13.0543 11.9898 12.7514 12.3044 12.4338C12.7706 11.9619 12.7735 11.3909 12.3103 10.9247C11.7567 10.3683 11.2003 9.81479 10.6438 9.26127Z" fill="url(#paint0_linear_135_1636)"/>
<path d="M10.0874 6.9394L11.1624 6.75587C10.9934 5.76827 10.5273 4.87389 9.81936 4.16306C9.07063 3.41435 8.12379 2.9424 7.08082 2.79674L6.92933 3.87756C7.73632 3.99118 8.47048 4.35533 9.05024 4.93507C9.59794 5.48277 9.95628 6.17613 10.0874 6.9394Z" fill="url(#paint1_linear_135_1636)"/>
<path d="M11.7684 2.26652C10.5273 1.02547 8.95701 0.241801 7.22357 0L7.07208 1.08082C8.56954 1.29058 9.92715 1.96937 10.9993 3.03854C12.016 4.05527 12.6832 5.34002 12.925 6.75295L14 6.56942C13.7174 4.93216 12.9454 3.44639 11.7684 2.26652Z" fill="url(#paint2_linear_135_1636)"/>
<defs>
<linearGradient id="paint0_linear_135_1636" x1="5.20661" y1="12.32" x2="11.4756" y2="11.3885" gradientUnits="userSpaceOnUse">
<stop stop-color="#FFC83E"/>
<stop offset="1" stop-color="#FF7347"/>
</linearGradient>
<linearGradient id="paint1_linear_135_1636" x1="5.20661" y1="12.32" x2="11.4756" y2="11.3885" gradientUnits="userSpaceOnUse">
<stop stop-color="#FFC83E"/>
<stop offset="1" stop-color="#FF7347"/>
</linearGradient>
<linearGradient id="paint2_linear_135_1636" x1="5.20661" y1="12.32" x2="11.4756" y2="11.3885" gradientUnits="userSpaceOnUse">
<stop stop-color="#FFC83E"/>
<stop offset="1" stop-color="#FF7347"/>
</linearGradient>
</defs>
</svg>
