<svg width="945" height="799" viewBox="0 0 945 799" fill="none" xmlns="http://www.w3.org/2000/svg">
<path d="M833.042 468.705C833.042 669.923 669.923 833.042 468.705 833.042C267.487 833.042 104.368 669.923 104.368 468.705C104.368 267.487 267.487 104.368 468.705 104.368C669.923 104.368 833.042 267.487 833.042 468.705Z" fill="#F8D72F" fill-opacity="0.1"/>
<path d="M757.139 467.756C757.139 626.529 628.427 755.241 469.654 755.241C310.88 755.241 182.169 626.529 182.169 467.756C182.169 308.982 310.88 180.271 469.654 180.271C628.427 180.271 757.139 308.982 757.139 467.756Z" fill="#F8D72F" fill-opacity="0.2"/>
<path d="M698.313 468.705C698.313 595.514 595.514 698.313 468.705 698.313C341.895 698.313 239.096 595.514 239.096 468.705C239.096 341.895 341.895 239.096 468.705 239.096C595.514 239.096 698.313 341.895 698.313 468.705Z" fill="#F8D72F"/>
</svg>
