<?xml version="1.0" standalone="no"?>
<!DOCTYPE svg PUBLIC "-//W3C//DTD SVG 20010904//EN"
 "http://www.w3.org/TR/2001/REC-SVG-20010904/DTD/svg10.dtd">
<svg version="1.0" xmlns="http://www.w3.org/2000/svg"
 width="1120.000000pt" height="1120.000000pt" viewBox="0 0 1120.000000 1120.000000"
 preserveAspectRatio="xMidYMid meet">
<metadata>
Created by potrace 1.14, written by Peter Selinger 2001-2017
</metadata>
<g transform="translate(0.000000,1120.000000) scale(0.100000,-0.100000)"
fill="#000000" stroke="none">
<path d="M4889 11190 c-3 -33 3 -116 16 -230 24 -222 25 -1012 0 -1140 -2 -10
-7 -58 -10 -106 -4 -49 -9 -102 -11 -119 -2 -16 -6 -52 -9 -80 -4 -47 -9 -78
-20 -150 -3 -16 -7 -48 -10 -70 -2 -22 -7 -51 -9 -65 -3 -13 -8 -42 -11 -65
-4 -22 -13 -65 -20 -96 -8 -30 -16 -64 -18 -75 -7 -36 -63 -236 -75 -264 -3
-8 -6 -19 -7 -25 -1 -5 -9 -27 -18 -49 -9 -21 -17 -42 -17 -47 0 -5 -15 -47
-34 -94 -19 -46 -31 -86 -28 -89 3 -3 0 -6 -7 -6 -7 0 -9 -4 -6 -10 3 -5 1
-10 -4 -10 -6 0 -11 -8 -11 -17 0 -20 -146 -321 -168 -345 -8 -10 -12 -18 -8
-18 4 0 -5 -17 -19 -37 -14 -21 -25 -41 -25 -45 0 -5 -15 -30 -34 -56 -18 -27
-37 -58 -40 -70 -4 -12 -12 -22 -17 -22 -5 0 -9 -7 -9 -15 0 -8 -4 -15 -10
-15 -5 0 -10 -4 -10 -10 0 -5 -14 -29 -30 -52 -17 -24 -47 -67 -66 -97 -20
-30 -42 -61 -50 -68 -8 -8 -14 -18 -14 -21 0 -4 -10 -18 -22 -32 -13 -14 -43
-52 -68 -85 -45 -62 -47 -64 -79 -103 -11 -13 -34 -42 -53 -64 -18 -23 -43
-52 -55 -64 -13 -13 -23 -26 -23 -29 0 -3 -8 -13 -17 -23 -10 -10 -47 -51 -83
-92 -73 -84 -161 -180 -203 -222 -15 -15 -26 -28 -24 -28 2 0 -38 -42 -87 -94
-50 -51 -183 -189 -296 -306 -113 -117 -213 -220 -223 -229 -35 -30 -380 -386
-527 -541 -177 -189 -189 -201 -229 -249 -20 -24 -45 -54 -56 -65 -11 -12 -27
-31 -35 -42 -28 -40 -135 -179 -152 -198 -10 -11 -18 -24 -18 -29 0 -4 -7 -15
-15 -23 -37 -37 -345 -526 -345 -548 0 -3 -13 -28 -30 -56 -16 -28 -30 -57
-30 -65 0 -7 -4 -15 -8 -17 -17 -6 -172 -351 -172 -380 0 -9 -7 -21 -15 -28
-8 -7 -15 -22 -15 -34 0 -12 -4 -26 -9 -32 -22 -23 -139 -417 -156 -527 -3
-16 -7 -32 -9 -36 -3 -4 -8 -27 -11 -52 -7 -53 -13 -84 -15 -84 -1 0 -3 -11
-4 -25 -2 -14 -6 -48 -9 -75 -18 -139 -21 -206 -22 -385 0 -107 4 -231 9 -275
4 -44 10 -93 11 -110 2 -16 4 -31 5 -32 2 -2 3 -11 4 -20 3 -27 17 -112 23
-136 2 -12 7 -33 10 -47 2 -14 7 -32 10 -40 3 -8 7 -24 9 -35 11 -67 99 -327
150 -442 8 -18 20 -48 28 -65 129 -305 285 -590 374 -683 6 -8 12 -17 12 -22
0 -4 29 -38 63 -75 35 -38 62 -70 60 -72 -3 -2 4 -7 15 -10 10 -4 25 -18 32
-31 7 -14 17 -25 22 -25 4 0 31 -21 59 -47 28 -27 53 -46 55 -43 3 3 10 -3 15
-13 10 -17 147 -113 226 -158 45 -26 214 -112 228 -116 6 -1 62 -21 125 -43
63 -22 137 -44 165 -50 27 -6 61 -13 75 -16 14 -3 39 -7 55 -10 17 -3 41 -7
55 -10 84 -16 481 -18 2730 -19 2449 0 2496 0 2535 19 22 11 42 20 45 21 31 4
386 216 410 244 3 3 23 19 45 36 186 136 477 442 605 635 8 12 27 40 43 61 15
21 27 43 27 49 0 5 4 10 9 10 5 0 14 13 20 30 5 16 14 30 19 30 5 0 12 8 15
17 4 10 22 45 41 78 57 97 206 403 210 432 1 7 5 16 9 19 4 4 7 15 7 25 0 9 4
19 8 21 4 2 18 35 31 73 12 39 26 79 31 90 13 30 71 217 74 240 2 11 6 27 9
35 3 8 14 44 23 80 16 65 20 83 29 130 3 14 9 40 14 58 5 18 10 36 10 40 1 7
14 94 16 102 6 24 24 129 30 180 4 33 15 116 22 165 3 22 6 56 8 75 2 19 6 64
9 100 16 174 20 279 20 570 0 278 -4 370 -19 485 -2 17 -7 62 -10 100 -4 39
-9 79 -11 90 -9 46 -22 125 -30 190 -2 22 -7 47 -10 55 -3 8 -8 29 -10 45 -3
17 -14 72 -25 123 -12 52 -22 99 -23 105 -3 13 -19 87 -22 100 -1 4 -2 8 -4
10 -1 1 -3 9 -5 17 -7 34 -66 256 -72 270 -3 8 -7 20 -8 25 -2 8 -24 83 -30
105 -1 3 -5 19 -10 35 -4 17 -10 35 -14 40 -3 6 -7 21 -9 35 -2 13 -7 29 -11
35 -4 5 -14 33 -21 60 -7 28 -18 59 -23 70 -6 11 -12 27 -13 35 -3 14 -37 117
-51 150 -3 8 -7 17 -8 20 -1 3 -4 12 -8 20 -27 72 -88 237 -90 245 -1 6 -4 12
-7 15 -3 3 -11 23 -19 45 -7 22 -34 90 -60 150 -25 61 -46 112 -47 115 0 3 -9
23 -18 45 -10 22 -24 54 -31 70 -7 17 -33 75 -58 130 -24 55 -53 121 -63 147
-10 27 -22 48 -26 48 -5 0 -8 6 -8 13 0 13 -19 55 -103 227 -23 47 -41 88 -39
93 1 4 -3 7 -8 7 -5 0 -9 3 -8 8 3 10 -252 513 -273 539 -6 7 -8 13 -3 13 5 0
5 4 -1 8 -5 4 -28 41 -49 82 -22 41 -48 91 -59 110 -35 63 -64 114 -88 160
-13 25 -26 47 -29 50 -10 10 -30 45 -45 80 -9 19 -23 42 -32 52 -9 10 -12 18
-7 18 5 0 5 4 -1 8 -5 4 -16 17 -22 30 -7 12 -19 32 -25 45 -7 12 -15 24 -18
27 -3 3 -14 21 -25 42 -33 60 -88 153 -94 158 -4 3 -15 22 -26 43 -11 20 -23
37 -27 37 -5 0 -8 6 -8 14 0 8 -11 28 -25 43 l-25 28 5 -30 c28 -149 23 -527
-9 -725 -11 -65 -11 -69 -25 -135 -25 -119 -120 -328 -212 -468 -22 -32 -39
-60 -39 -63 0 -5 -86 -119 -144 -189 -49 -58 -107 -118 -111 -113 -4 3 -17
192 -19 265 0 24 -3 43 -6 43 -3 0 -6 15 -7 33 -1 17 -4 48 -8 67 -3 19 -6 50
-6 68 -1 17 -5 35 -10 38 -5 3 -7 9 -4 14 3 5 -7 64 -21 132 -15 68 -27 130
-27 138 0 8 -3 20 -7 25 -4 6 -11 28 -15 50 -12 58 -11 53 -35 135 -38 129
-122 374 -150 435 -5 11 -30 66 -54 123 -61 139 -216 435 -236 452 -4 3 -9 13
-13 22 -3 10 -29 51 -57 93 -27 41 -50 77 -50 80 0 3 -8 15 -18 26 -11 10 -25
32 -33 47 -8 15 -16 29 -19 32 -4 3 -22 27 -41 55 -42 61 -50 72 -69 94 -8 9
-28 36 -45 61 -16 24 -38 53 -47 64 -10 12 -48 59 -85 106 -37 47 -72 90 -78
96 -5 6 -28 33 -50 58 -168 198 -401 436 -603 615 -100 89 -112 99 -156 134
-21 18 -43 37 -50 42 -19 18 -71 59 -106 85 -57 43 -105 79 -117 90 -7 6 -55
40 -105 75 -51 36 -100 71 -108 78 -8 7 -46 33 -85 57 -38 25 -73 49 -77 55
-5 6 -8 4 -9 -5z"/>
</g>
</svg>
